<?xml version="1.0" encoding="utf-8"?>
<!-- Generator: Adobe Illustrator 21.1.0, SVG Export Plug-In . SVG Version: 6.00 Build 0)  -->
<svg version="1.1" id="Capa_1" xmlns="http://www.w3.org/2000/svg" xmlns:xlink="http://www.w3.org/1999/xlink" x="0px" y="0px"
	 viewBox="0 0 512 512" style="enable-background:new 0 0 512 512;" xml:space="preserve">
<style type="text/css">
	.st0{fill:#FFFFFF;}
</style>
<g>
	<path class="st0" d="M2.3,199.3c1.9,4.3,4.4,7.3,7.4,8.8c9.1,4.6,23.4-5.5,35.4-14.8c0,0.2,0.1,0.5,0.1,0.7l0.1,0.7l-0.4,0.6
		c-7.7,11.3-11.7,24.3-11.7,37.8c0,9.5,2,18.8,6,27.5l0.3,0.7l-0.3,0.7c-4,8.7-6,18-6,27.5c0,17.6,6.9,34.3,19.5,47.1l0.5,0.5v114.2
		c0,8.1,6.6,14.7,14.7,14.7c8.1,0,14.7-6.6,14.7-14.7V355l2.2,0.6c4.2,1.1,8.6,1.9,12.9,2.3l0.6,0l0.4,0.4c2.2,2,4.6,3.8,7.2,5.5
		l0.8,0.5v52.9c0,8.1,6.6,14.7,14.7,14.7c8.1,0,14.7-6.6,14.7-14.7v-42.1l1.9,0.2c2.6,0.3,5.2,0.4,7.7,0.4c9.8,0,19.7-2,28.6-5.9
		l0.7-0.3l0.7,0.3c8.9,3.9,18.8,5.9,28.6,5.9c12.2,0,24.2-3.1,34.7-8.9l0.7-0.4l0.7,0.2c3.7,1.2,7.5,2.1,11.4,2.7l1.5,0.2v81.8
		c0,8.1,6.6,14.7,14.7,14.7c8.1,0,14.7-6.6,14.7-14.7v-83.9l1.3-0.4c8.4-2.5,16.1-6.5,23-11.9l2.9-2.2v64.2
		c0,8.1,6.6,14.7,14.7,14.7c8.1,0,14.7-6.6,14.7-14.7v-84l0.8-0.5c17.9-11.8,29.5-31.3,30.9-52.2l0.1-0.8l0.6-0.5
		c15.9-12.2,25.7-30.6,26.6-50.3l0-0.9l0.7-0.5c3.5-2.5,7-5.5,10.3-8.9c10-10.1,19.5-24.2,28.3-42.1c5-10.2,9.7-21.4,14-33.3
		l0.3-0.8l0.8-0.3c15.6-5.7,30.2-15.9,35.8-20.1c5.8-4.3,11-8.8,14.6-12.6c2.8-2.9,10.3-10.8,8.3-20.5C508.2,73.1,477,63.6,461,62
		c-9-0.9-17.4-0.2-24.7,2.1l-0.8,0.2l-0.7-0.5c-14.2-9.7-31.7-15.6-52-17.6c-3.8-0.4-7.6-0.5-11.2-0.5c-15.4,0-29.7,3.1-42.3,9.1
		l-0.9,0.4l-0.8-0.5c-7.3-4.4-16.2-7.2-26.3-8.2c-2.6-0.3-5.4-0.4-8.3-0.4c-14.6,0-40.8,3.7-46.6,17.4c-3.5,8.2,0.6,16.2,4.5,22.2
		c3.1,4.7,7.5,10.2,12.6,15.7c1,1.1,2.2,2.3,3.5,3.7l2.8,2.8l-3.9,0.2c-5.7,0.3-11.2,1.2-16.5,2.8l-0.7,0.2l-0.7-0.4
		c-11.1-6.7-23.8-10.2-37-10.2c-8.2,0-16.2,1.3-23.8,4l-0.6,0.2l-0.6-0.2c-7.6-2.7-15.6-4-23.8-4c-14.8,0-29,4.4-41.1,12.8l-0.5,0.4
		l-0.6,0c-1.8-0.1-3.7-0.2-5.5-0.2c-29.2,0-54.3,17.3-65,42c-18.2,3.9-40,11.1-47.2,24.2C-0.8,185.6-0.8,192.2,2.3,199.3z
		 M368.8,214.5c-0.7,0-1.5,0-2.2-0.1c-8.5-0.8-16.4-6.4-23.5-16.5c-6.5-9.3-12.1-22.1-16.7-38.1c-4.5-15.8-7-31-8.3-41l-0.8-6.4
		l-6.5-3c-12.8-6-26.1-19.7-29.9-23.8c-3.2-3.5-6.3-7.1-8.5-10.2l-1.5-2.1l2.5-0.7c5.8-1.6,12.9-2.5,19.6-2.5c2.1,0,4.1,0.1,6,0.3
		c8.8,0.8,15.7,3.5,20,7.7l6.7,6.5l7.9-4.9c12.7-8,29.1-11.3,46.9-9.6c23.6,2.3,37.8,10.5,45.6,17.1l5.9,5l7.7-3.8
		c4.9-2.4,11.3-3.3,19-2.5c9.4,0.9,19,4.2,24.7,7l2.3,1.1l-1.9,1.8c-2.6,2.4-5.8,5.1-9.3,7.7c-4.2,3.1-19.1,13.7-32.9,17.9l-8,2.4
		l-2,5.8c-3.1,9.1-8.2,22.9-15,36.9c-7.7,15.5-15.7,27.6-23.8,35.9C384.7,210.3,376.6,214.5,368.8,214.5z M66.8,261.4l-3.7-6.1
		c-4-6.7-6.2-14.4-6.2-22.2c0-10.3,3.6-20,10.3-28l4.1-4.9l-1.8-6.1c-1.2-4-1.7-8-1.7-12.1c0-24.6,21-44.7,46.7-44.7
		c2.5,0,5.1,0.2,7.7,0.6l5.3,0.8l4.1-3.4c8.5-7.1,19.4-10.9,30.6-10.9c6.8,0,13.4,1.4,19.6,4.1l4.8,2.1l4.8-2.1
		c6.2-2.7,12.8-4.1,19.6-4.1c10.5,0,20.5,3.3,28.8,9.5l5.4,4l6.2-2.5c5.8-2.3,11.9-3.5,18.2-3.5c8.4,0,16.6,2.2,23.8,6.2l4.2,2.4
		l0.2,0.8c1.7,8.8,3.7,17.2,5.9,25c5.3,18.5,12,33.7,20,45.1c11.2,16.1,24.9,25.1,40.7,26.6c2,0.2,3.9,0.3,5.9,0.2l3-0.1l-0.9,2.5
		c-3.5,9.5-10.1,17.4-19,22.8l-6,3.7l0.3,7c0,0.7,0.1,1.4,0.1,2.1c0,20.9-15.5,39.3-36.9,43.7l-4.9,1l-2.7,4.3
		c-8.6,13.5-23.5,21.6-40,21.6c-6.8,0-13.4-1.4-19.6-4.1l-6.1-2.7l-5.5,3.8c-8,5.6-17.5,8.5-27.4,8.5c-8.3,0-16.4-2.1-23.5-6.1
		l-5.8-3.2l-5.8,3.2c-7.1,4-15.3,6.1-23.5,6.1c-13.1,0-25.2-5-34.1-14.2l-3.5-3.5l-4.9,0C77.8,334.2,57,314.2,57,289.7
		c0-7.8,2.1-15.4,6.2-22.2L66.8,261.4z"/>
</g>
</svg>
